<svg aria-hidden="true" style="position: absolute; width: 0; height: 0; overflow: hidden;" version="1.1" xmlns="http://www.w3.org/2000/svg" xmlns:xlink="http://www.w3.org/1999/xlink">
<defs>
<symbol id="icon-Order-Service" viewBox="0 0 140 32">
<path fill="#fff" style="fill: var(--color1, #fff)" d="M54.116 18.76c0-0.313-0.049-0.59-0.146-0.833-0.090-0.243-0.253-0.465-0.49-0.667s-0.569-0.396-1-0.583c-0.424-0.194-0.965-0.392-1.625-0.594-0.722-0.222-1.389-0.469-2-0.74-0.604-0.278-1.132-0.597-1.583-0.958-0.451-0.368-0.802-0.788-1.052-1.26-0.25-0.479-0.375-1.031-0.375-1.656 0-0.618 0.128-1.181 0.385-1.688 0.264-0.507 0.635-0.944 1.115-1.313 0.486-0.375 1.059-0.663 1.719-0.865 0.66-0.208 1.389-0.313 2.187-0.313 1.125 0 2.094 0.208 2.906 0.625 0.819 0.417 1.448 0.976 1.885 1.677 0.444 0.701 0.667 1.476 0.667 2.323h-2.594c0-0.5-0.108-0.941-0.323-1.323-0.208-0.389-0.528-0.694-0.958-0.917-0.424-0.222-0.962-0.333-1.615-0.333-0.618 0-1.132 0.094-1.542 0.281s-0.715 0.441-0.917 0.76c-0.201 0.319-0.302 0.681-0.302 1.083 0 0.285 0.066 0.545 0.198 0.781 0.132 0.229 0.333 0.444 0.604 0.646 0.271 0.194 0.611 0.378 1.021 0.552s0.892 0.34 1.448 0.5c0.84 0.25 1.573 0.528 2.198 0.833 0.625 0.299 1.146 0.639 1.562 1.021s0.729 0.816 0.938 1.302c0.208 0.479 0.312 1.024 0.312 1.635 0 0.639-0.128 1.215-0.385 1.729-0.257 0.507-0.625 0.941-1.104 1.302-0.472 0.354-1.042 0.629-1.708 0.823-0.66 0.187-1.396 0.281-2.208 0.281-0.729 0-1.448-0.097-2.156-0.292-0.701-0.194-1.34-0.49-1.917-0.885-0.576-0.403-1.035-0.903-1.375-1.5-0.34-0.604-0.51-1.309-0.51-2.115h2.615c0 0.493 0.083 0.913 0.25 1.26 0.174 0.347 0.413 0.632 0.719 0.854 0.306 0.215 0.66 0.375 1.063 0.479 0.41 0.104 0.847 0.156 1.312 0.156 0.611 0 1.122-0.087 1.531-0.26 0.417-0.174 0.729-0.417 0.937-0.729s0.313-0.674 0.313-1.083zM64.625 22.875c-0.833 0-1.587-0.135-2.26-0.406-0.667-0.278-1.236-0.663-1.708-1.156-0.465-0.493-0.823-1.073-1.073-1.74s-0.375-1.385-0.375-2.156v-0.417c0-0.882 0.128-1.681 0.385-2.396s0.615-1.326 1.073-1.833c0.458-0.514 1-0.906 1.625-1.177s1.302-0.406 2.031-0.406c0.806 0 1.51 0.135 2.115 0.406s1.104 0.653 1.5 1.146c0.403 0.486 0.701 1.066 0.896 1.74 0.201 0.674 0.302 1.417 0.302 2.229v1.073h-8.708v-1.802h6.229v-0.198c-0.014-0.451-0.104-0.875-0.271-1.271-0.16-0.396-0.406-0.715-0.74-0.958s-0.778-0.365-1.333-0.365c-0.417 0-0.788 0.090-1.115 0.271-0.319 0.174-0.587 0.427-0.802 0.76s-0.382 0.736-0.5 1.208c-0.111 0.465-0.167 0.99-0.167 1.573v0.417c0 0.493 0.066 0.951 0.198 1.375 0.139 0.417 0.34 0.781 0.604 1.094s0.583 0.559 0.958 0.74c0.375 0.174 0.802 0.26 1.281 0.26 0.604 0 1.142-0.122 1.615-0.365s0.882-0.587 1.229-1.031l1.323 1.281c-0.243 0.354-0.559 0.695-0.948 1.021-0.389 0.319-0.865 0.58-1.427 0.781-0.556 0.201-1.201 0.302-1.937 0.302zM74.437 13.802v8.865h-2.51v-11.271h2.365l0.146 2.406zM73.989 16.615l-0.813-0.010c0.007-0.799 0.118-1.531 0.333-2.198 0.222-0.667 0.528-1.24 0.917-1.719 0.396-0.479 0.868-0.847 1.417-1.104 0.549-0.264 1.16-0.396 1.833-0.396 0.542 0 1.031 0.076 1.469 0.229 0.444 0.146 0.823 0.385 1.135 0.719 0.319 0.333 0.563 0.767 0.729 1.302 0.167 0.528 0.25 1.177 0.25 1.948v7.281h-2.521v-7.292c0-0.542-0.080-0.969-0.24-1.281-0.153-0.319-0.379-0.545-0.677-0.677-0.292-0.139-0.656-0.208-1.094-0.208-0.431 0-0.816 0.090-1.156 0.271s-0.629 0.427-0.865 0.74c-0.229 0.312-0.406 0.674-0.531 1.083s-0.187 0.847-0.187 1.312zM91.551 20.333v-13.667h2.521v16h-2.281l-0.24-2.333zM84.217 17.156v-0.219c0-0.854 0.101-1.632 0.302-2.333 0.201-0.708 0.493-1.316 0.875-1.823 0.382-0.514 0.847-0.906 1.396-1.177 0.549-0.278 1.167-0.417 1.854-0.417 0.681 0 1.278 0.132 1.792 0.396s0.951 0.642 1.313 1.135c0.361 0.486 0.649 1.069 0.865 1.75 0.215 0.674 0.368 1.424 0.458 2.25v0.698c-0.090 0.806-0.243 1.542-0.458 2.208s-0.503 1.243-0.865 1.729c-0.361 0.486-0.802 0.861-1.323 1.125-0.514 0.264-1.115 0.396-1.802 0.396-0.681 0-1.295-0.142-1.844-0.427-0.542-0.285-1.003-0.684-1.385-1.198s-0.674-1.118-0.875-1.813c-0.201-0.701-0.302-1.462-0.302-2.281zM86.728 16.937v0.219c0 0.514 0.045 0.993 0.135 1.437 0.097 0.444 0.247 0.837 0.448 1.177 0.201 0.333 0.462 0.597 0.781 0.792 0.326 0.187 0.715 0.281 1.167 0.281 0.569 0 1.038-0.125 1.406-0.375s0.656-0.587 0.865-1.010c0.215-0.431 0.361-0.91 0.437-1.438v-1.885c-0.042-0.41-0.128-0.792-0.26-1.146-0.125-0.354-0.295-0.663-0.51-0.927-0.215-0.271-0.483-0.479-0.802-0.625-0.312-0.153-0.684-0.229-1.115-0.229-0.458 0-0.847 0.097-1.167 0.292s-0.583 0.462-0.792 0.802c-0.201 0.34-0.351 0.736-0.448 1.187s-0.146 0.934-0.146 1.448z"></path>
</symbol>
<symbol id="icon-charm_menu-hamburger" viewBox="0 0 47 32">
<path stroke-linejoin="round" stroke-linecap="round" stroke-miterlimit="4" stroke-width="4.3636" d="M1.96 29.154h42.965M1.96 15.615h42.965M1.96 2.077h42.965"></path>
</symbol>
</defs>
</svg>
